<svg xmlns="http://www.w3.org/2000/svg" viewBox="0 0 490.001 490.001"><path d="M480 75h-50V10c0-5.523-4.477-10-10-10H10C4.477 0 0 4.477 0 10v395c0 5.523 4.477 10 10 10h50v65c0 5.523 4.477 10 10 10h309.988l.01.001a10 10 0 0 0 7.073-2.929l100-100c1.912-1.913 2.903-4.47 2.904-7.071H490V85c0-5.523-4.477-10-10-10zM60.001 85v310h-40V20h390v55h-340c-5.524 0-10 4.477-10 10zM390 455.858V390h65.857L390 455.858zM470 370h-90c-5.522 0-10 4.477-10 10v90H80V95h390v275z"/><path d="M125.001 145h280v20h-280zm0 60h150v20h-150zm0 60h280v20h-280zm0 60h150v20h-150zm0 60h35v20h-35zm50 0h35v20h-35zm50 0h35v20h-35z"/></svg>