<svg xmlns="http://www.w3.org/2000/svg" width="470.586" height="470.586" viewBox="0 0 470.586 470.586"><path d="M327.081 0H90.234C74.331 0 61.381 12.96 61.381 28.86v412.863c0 15.924 12.95 28.863 28.853 28.863H380.35c15.917 0 28.855-12.94 28.855-28.863V89.234zm6.81 43.184l35.996 39.121h-35.996zm51.081 398.54c0 2.542-2.081 4.629-4.635 4.629H90.234c-2.55 0-4.619-2.087-4.619-4.63V28.86a4.616 4.616 0 0 1 4.619-4.613h219.411v70.181c0 6.682 5.443 12.1 12.129 12.1h63.198z"/><path d="M347.265 175.786c0 5.012-4.066 9.08-9.079 9.08H132.4c-5.012 0-9.079-4.067-9.079-9.08s4.067-9.079 9.079-9.079h205.786c5.013 0 9.079 4.067 9.079 9.08zM149.017 294.8c0 5.013-2.377 9.078-5.31 9.079H128.63c-2.93 0-5.309-4.066-5.309-9.08 0-5.012 2.378-9.078 5.309-9.078h15.078c2.932 0 5.308 4.065 5.309 9.079zm40 0c0 5.013-2.377 9.078-5.31 9.079H168.63c-2.93 0-5.309-4.066-5.309-9.08 0-5.012 2.378-9.078 5.309-9.078h15.078c2.932 0 5.308 4.065 5.309 9.079zm40 0c0 5.013-2.377 9.078-5.31 9.079H208.63c-2.93 0-5.309-4.066-5.309-9.08 0-5.012 2.378-9.078 5.309-9.078h15.078c2.932 0 5.308 4.065 5.309 9.079zm118.248-59.507c0 5.012-4.066 9.079-9.079 9.079H132.4c-5.012 0-9.079-4.066-9.079-9.079 0-5.013 4.067-9.079 9.079-9.079h205.786c5.013 0 9.079 4.067 9.079 9.079z"/></svg>