<svg xmlns="http://www.w3.org/2000/svg" width="612" height="612" viewBox="0 0 612 612"><path d="M553.02 19.129H58.98c-10.939 0-20.922 4.503-28.135 11.716-7.213 7.213-11.716 17.196-11.716 28.115v89.228h573.742V58.96c0-10.939-4.503-20.902-11.716-28.115-7.214-7.213-17.196-11.716-28.135-11.716zM58.98 0h494.04c16.221 0 30.984 6.635 41.665 17.315C605.364 27.996 612 42.741 612 58.96v98.792c0 5.28-4.284 9.564-9.564 9.564H9.564c-5.28.02-9.564-4.283-9.564-9.544V58.96c0-16.22 6.635-30.965 17.315-41.645S42.761 0 58.98 0zM0 207.168c0-5.28 4.284-9.564 9.564-9.564s9.564 4.284 9.564 9.564V553.02c0 10.939 4.503 20.923 11.716 28.137 7.213 7.213 17.196 11.716 28.135 11.716H553.02c10.939 0 20.923-4.483 28.137-11.716 7.213-7.214 11.716-17.196 11.716-28.137V207.168c0-5.28 4.284-9.564 9.563-9.564 5.28 0 9.564 4.284 9.564 9.564V553.02c0 16.221-6.636 30.984-17.314 41.665C584.004 605.364 569.239 612 553.02 612H58.98c-16.22 0-30.985-6.636-41.665-17.315C6.635 584.004 0 569.239 0 553.02V207.168z"/><path d="M83.688 241.44c-5.28 0-9.564-4.284-9.564-9.564s4.284-9.564 9.564-9.564h444.644c5.26 0 9.564 4.284 9.564 9.564s-4.284 9.564-9.564 9.564H83.688zm0 58.961c-5.28 0-9.564-4.284-9.564-9.564s4.284-9.564 9.564-9.564h444.644c5.26 0 9.564 4.284 9.564 9.564s-4.284 9.564-9.564 9.564H83.688zm0 58.98c-5.28 0-9.564-4.284-9.564-9.563 0-5.28 4.284-9.564 9.564-9.564h444.644c5.26 0 9.564 4.284 9.564 9.564 0 5.261-4.284 9.563-9.564 9.563H83.688zm0 58.98c-5.28 0-9.564-4.305-9.564-9.564 0-5.28 4.284-9.563 9.564-9.563h444.644c5.26 0 9.564 4.283 9.564 9.563s-4.284 9.564-9.564 9.564H83.688zm0 58.96c-5.28 0-9.564-4.283-9.564-9.563 0-5.281 4.284-9.563 9.564-9.563h321.125c5.279 0 9.563 4.282 9.563 9.563 0 5.28-4.284 9.563-9.563 9.563H83.688zm0-384.108c-5.28 0-9.564-4.284-9.564-9.564s4.284-9.564 9.564-9.564h444.644c5.26 0 9.564 4.284 9.564 9.564s-4.284 9.564-9.564 9.564H83.688z"/></svg>