<svg xmlns="http://www.w3.org/2000/svg" width="48" height="48" viewBox="0 0 12.7 12.7"><path fill="#fff" d="M5.98 1.601l-.305.051-.165.013-.14.102-.153.038h-.153l-.127.09-.331.1-.331.065-.178.025-.064-.025h-.14l-.293.127-.165.038-.28-.076-.306.038h-.318l-.357-.102-.267.14-.09.127.064.153.128.09.153.05.254.14.293.102.165.026.306.178.115.102.063.165v.344l-.025.305.038.166-.064.165-.012.153.063.28-.038.153v.306l-.013.14v.649l-.114.127-.064.153-.293.178-.229.255.051.14.293.102.153.012.267.102.153.064.165.013.14.063.306.077.293.178.165.102.178.064.242-.217.255-.23.064-.165.114-.127.051-.14.204-.255.089-.292.114-.14.115-.09.293-.127.14-.05h.165l.14-.052.306.102.153.064.165.013.115.114.165.026.14.101.28.102.153.051h.178l.242.191.28.178.28.14.14.077.115.102.09.14.127.089.165.28.09.127-.014.191.064.178.026.179-.039.305-.05.14-.09.128-.05.152-.192.242-.063.14-.128.09-.152.038-.153.076-.28.05-.14.052-.293.025-.14.064-.166-.038h-.178l-.127-.102-.166-.038-.127-.14-.153-.051-.114-.102-.293-.102-.127-.05-.115-.116-.242-.178-.293-.089-.076-.153-.153-.063-.102-.09-.152-.038-.268-.152-.204.012-.14-.063-.178.025-.153-.05-.318.05-.14.038-.14.102-.293.128-.267.165-.127.09-.293.088-.102.128-.14.063-.115.102-.063.127-.242.204-.166.255-.063.127-.204.267-.153.293.051.14.115.064.165-.076.153-.293.204-.255.14-.089.102-.115.28-.178.14-.076h.165l.153-.09.165.026.166-.05.33.038.166.076.166.025.318.128.306.114.267.14.127.064.128.115.152.012.255.153.217.23.076.126.216.217.14.05.077.128.254.127.153-.038.115-.089.165-.025.115-.102.267-.115.268-.178.241-.178.128-.115.127-.076.166-.038.101-.128.115-.089.165-.038.09-.127.152-.051.128-.128.292-.089.191-.267.204-.242.102-.127.115-.09.101-.127.039-.165.165-.255.064-.305.025-.153-.063-.178v-.191l-.051-.179.05-.14-.05-.292-.077-.293-.178-.255-.165-.267-.128-.09-.063-.152-.204-.242-.14-.076-.102-.115-.166-.038-.292-.14-.268-.166-.152-.05-.255-.179-.306-.102h-.165l-.14-.063-.153-.026-.293-.102-.102-.292.102-.293.178-.268.115-.101.191-.255.216-.267.077-.153.114-.128.153-.101.051-.166.166-.293-.115-.152-.165.114L8.4 2.2l-.102.165-.306.115H7.84l-.319-.102-.165-.051-.102-.127-.14-.102-.102-.127-.14-.102-.166-.038-.14-.102-.152-.064-.115-.076-.344.025zM4.696 2.925l-.013-.063.102-.153.318.102.255.254.165.026.293.165.115.115.305.14.242.217.166.05.114.077.064.127-.05.293.025.165-.23.217-.152.254-.115.115-.025.153-.102.14-.14.076-.115.102-.153.293-.229.204-.127.089-.293.063-.153-.05-.203-.191-.077-.115v-.637l-.05-.152.063-.153.025-.166-.038-.33.038-.166-.025-.318.038-.179v-.305l-.025-.217.025-.127-.05-.114zm2.788 5.513l.242.025.165-.05.153-.28.115-.14.013-.166.101-.318.039-.115-.064-.153-.242-.203L7.7 6.91l-.305-.063-.102-.039-.165.039-.09.14-.229.229-.127.293-.115.14-.025.152.14.242.127.09.28.101.255.153z"/></svg>