<?xml version="1.0" encoding="UTF-8"?>
<svg width="26px" height="18px" viewBox="0 0 26 18" version="1.1" xmlns="http://www.w3.org/2000/svg" xmlns:xlink="http://www.w3.org/1999/xlink">
    <!-- Generator: Sketch 52.4 (67378) - http://www.bohemiancoding.com/sketch -->
    <title>YouTube icon</title>
    <desc>Created with Sketch.</desc>
    <g id="DESIGN" stroke="none" stroke-width="1" fill-rule="evenodd">
        <g id="FOOTER---ORIGINAL" transform="translate(-1048.000000, -538.000000)" fill="#000000">
            <g id="FOOTER">
                <g id="Social-Media" transform="translate(881.000000, 458.000000)">
                    <g id="Youtube" transform="translate(167.000000, 80.000000)">
                        <g id="icon_insta">
                            <path d="M9.494,13.4796832 L9.494,4.40268317 L17.408,8.94168317 L9.494,13.4796832 Z M25.106,4.21968317 C24.965,2.53368317 23.96,0.40768317 21.894,0.33268317 C16.127,-0.0563168303 9.294,-0.16231683 3.423,0.33268317 C1.601,0.53668317 0.352,2.75468317 0.216,4.44068317 C-0.072,7.98068317 -0.072,9.99668317 0.216,13.5366832 C0.353,15.2226832 1.571,17.4546832 3.426,17.6876832 C9.367,18.0756832 16.167,18.1316832 21.898,17.6876832 C23.696,17.3766832 24.97,15.2226832 25.108,13.5366832 C25.394,9.99468317 25.394,7.75968317 25.106,4.21968317 Z" id="Fill-1"></path>
                        </g>
                    </g>
                </g>
            </g>
        </g>
    </g>
</svg>
