<?xml version="1.0" encoding="UTF-8"?>
<svg width="19px" height="18px" viewBox="0 0 19 18" version="1.1" xmlns="http://www.w3.org/2000/svg" xmlns:xlink="http://www.w3.org/1999/xlink">
    <!-- Generator: Sketch 52.3 (67297) - http://www.bohemiancoding.com/sketch -->
    <title>LinkedIn icon</title>
    <desc>Created with Sketch.</desc>
    <g id="DESIGN" stroke="none" stroke-width="1" fill-rule="evenodd">
        <g id="FOOTER---ORIGINAL" transform="translate(-1051.000000, -502.000000)" fill="#000000">
            <g id="FOOTER">
                <g id="Social-Media" transform="translate(881.000000, 458.000000)">
                    <g id="LinkedIn" transform="translate(170.000000, 44.000000)">
                        <path d="M0.239867446,18 L4.27710327,18 L4.27710327,5.85470144 L0.239867446,5.85470144 L0.239867446,18 Z M2.28537574,0 C0.90371823,0 0,0.906258364 0,2.09801899 C0,3.26380894 0.877572372,4.19757081 2.23177016,4.19757081 L2.25874813,4.19757081 C3.66716464,4.19757081 4.54307278,3.26398412 4.54307278,2.09801899 C4.51653277,0.906258364 3.66716464,0 2.28537574,0 Z M18.8371492,11.0357857 L18.8371492,18 L14.7997382,18 L14.7997382,11.5022068 C14.7997382,9.86990818 14.2157702,8.75592819 12.7543613,8.75592819 C11.6387609,8.75592819 10.9748663,9.50666907 10.6827947,10.2328845 C10.5762843,10.4925037 10.5488684,10.8538596 10.5488684,11.2172739 L10.5488684,18 L6.51009971,18 C6.51009971,18 6.5644936,6.99487107 6.51009971,5.85465764 L10.5484742,5.85465764 L10.5484742,7.57621131 C10.5402845,7.58908716 10.5296422,7.6029703 10.5219342,7.61545199 L10.5484742,7.61545199 L10.5484742,7.57621131 C11.0850118,6.74983577 12.0432115,5.56933056 14.1879602,5.56933056 C16.8451589,5.56928677 18.8371492,7.30520533 18.8371492,11.0357857 Z" id="ico_li"></path>
                    </g>
                </g>
            </g>
        </g>
    </g>
</svg>
